<svg xmlns="http://www.w3.org/2000/svg" width="100" height="36" viewBox="0 0 100 36" fill="none"><path d="M4.02142 26.378L1.23322 12.1689H5.54957L7.10453 21.7399H7.21177L11.7426 12.1689H16.5415L9.16887 26.378H4.02142ZM28.8657 22.1957C28.3295 23.4468 27.4358 24.5192 26.1847 25.4129C24.9335 26.2886 23.2177 26.7265 21.0372 26.7265C19.1069 26.7265 17.5698 26.2082 16.426 25.1716C15.282 24.135 14.7102 22.7141 14.7102 20.9088C14.7102 19.1752 15.0587 17.6202 15.7557 16.244C16.4528 14.8677 17.4536 13.7865 18.7584 13C20.0631 12.2136 21.6002 11.8204 23.3697 11.8204C25.282 11.8204 26.8102 12.3387 27.9541 13.3753C29.098 14.3941 29.6699 15.8328 29.6699 17.6917C29.6699 18.4245 29.5627 19.2377 29.3482 20.1314H19.0533C18.9997 20.5067 18.9729 20.8552 18.9729 21.1769C18.9729 21.9991 19.1784 22.6515 19.5895 23.134C20.0005 23.5988 20.5635 23.8311 21.2785 23.8311C22.1185 23.8311 22.8067 23.6166 23.3429 23.1877C23.8791 22.7587 24.2722 22.2761 24.5225 21.7399L28.8657 22.1957ZM23.1552 14.6354C22.2793 14.6354 21.5198 14.9125 20.8764 15.4665C20.2508 16.0027 19.8308 16.6997 19.6163 17.5576H25.4608C25.4787 17.4326 25.4876 17.2449 25.4876 16.9946C25.4876 16.3154 25.291 15.7524 24.8978 15.3056C24.5045 14.8588 23.9237 14.6354 23.1552 14.6354ZM35.7682 14.3673H35.8754C36.4116 13.5272 37.0372 12.8928 37.7521 12.4638C38.485 12.0348 39.3965 11.8204 40.4867 11.8204C40.9693 11.8204 41.3178 11.865 41.5323 11.9544L40.8352 15.8954C40.4063 15.824 39.9237 15.7882 39.3875 15.7882C36.939 15.7882 35.4913 17.0214 35.0443 19.4879L33.8379 26.378H29.5752L32.0685 12.1689H36.1435L35.7682 14.3673ZM49.0344 23.1609L48.4714 26.378C48.2033 26.4138 47.3276 26.4316 45.8441 26.4316C44.5036 26.4316 43.5026 26.244 42.8414 25.8686C42.1801 25.4755 41.8494 24.7873 41.8494 23.8043C41.8494 23.4468 41.8852 23.0983 41.9567 22.7587L43.324 14.9303H41.1256L41.5813 12.1689H43.8065L44.5036 8.22787H48.7395L48.0693 12.1689H50.9647L50.4821 14.9303H47.5867L46.3535 21.874C46.3177 22.1599 46.2998 22.3387 46.2998 22.4102C46.2998 22.7497 46.3981 22.9642 46.5947 23.0536C46.7914 23.1251 47.1667 23.1609 47.7207 23.1609H49.0344ZM63.7611 22.1957C63.2249 23.4468 62.3312 24.5192 61.0801 25.4129C59.8289 26.2886 58.1131 26.7265 55.9327 26.7265C54.0024 26.7265 52.4652 26.2082 51.3214 25.1716C50.1774 24.135 49.6056 22.7141 49.6056 20.9088C49.6056 19.1752 49.9541 17.6202 50.6512 16.244C51.3482 14.8677 52.349 13.7865 53.6539 13C54.9585 12.2136 56.4957 11.8204 58.2651 11.8204C60.1774 11.8204 61.7056 12.3387 62.8496 13.3753C63.9934 14.3941 64.5654 15.8328 64.5654 17.6917C64.5654 18.4245 64.4581 19.2377 64.2437 20.1314H53.9488C53.8951 20.5067 53.8683 20.8552 53.8683 21.1769C53.8683 21.9991 54.0738 22.6515 54.485 23.134C54.8959 23.5988 55.459 23.8311 56.174 23.8311C57.0139 23.8311 57.7021 23.6166 58.2383 23.1877C58.7745 22.7587 59.1677 22.2761 59.4179 21.7399L63.7611 22.1957ZM58.0506 14.6354C57.1748 14.6354 56.4153 14.9125 55.7718 15.4665C55.1462 16.0027 54.7262 16.6997 54.5118 17.5576H60.3563C60.3741 17.4326 60.3831 17.2449 60.3831 16.9946C60.3831 16.3154 60.1864 15.7524 59.7933 15.3056C59.4 14.8588 58.8191 14.6354 58.0506 14.6354ZM76.9917 26.378H72.3804L70.4233 22.1421L67.0453 26.378H62.0855L68.493 19.0054L64.9541 12.1689H69.4581L71.2812 16.0831L74.3107 12.1689H79.1364L73.1847 19.3271L76.9917 26.378Z" fill="black"></path><path d="M83.1311 7.81731L97.6542 15.4192L96.2626 22.5877L83.2168 15.5786L83.1311 7.81731Z" fill="#0079FF"></path><path d="M81.1543 20.3221L97.6422 15.4196L97.7093 22.3901L81.1543 28.6903V20.3221Z" fill="#0079FF"></path></svg>